<mxfile host="app.diagrams.net" modified="2023-05-14T14:23:10.356Z" agent="Mozilla/5.0 (Windows NT 10.0; Win64; x64) AppleWebKit/537.36 (KHTML, like Gecko) Chrome/113.0.0.0 Safari/537.36" etag="ZwtcYmlND5FXZzetf6oc" version="21.3.0" type="device">
  <diagram name="Page-1" id="gF1j4fOh49SZb3pDI2aA">
    <mxGraphModel dx="1434" dy="764" grid="1" gridSize="10" guides="1" tooltips="1" connect="1" arrows="1" fold="1" page="1" pageScale="1" pageWidth="850" pageHeight="1100" math="0" shadow="0">
      <root>
        <mxCell id="0" />
        <mxCell id="1" parent="0" />
        <mxCell id="CuUNJZhuXku8O-GPLWmY-3" style="edgeStyle=orthogonalEdgeStyle;rounded=0;orthogonalLoop=1;jettySize=auto;html=1;entryX=0.5;entryY=0;entryDx=0;entryDy=0;" edge="1" parent="1" source="CuUNJZhuXku8O-GPLWmY-1" target="CuUNJZhuXku8O-GPLWmY-2">
          <mxGeometry relative="1" as="geometry">
            <Array as="points">
              <mxPoint x="440" y="240" />
              <mxPoint x="440" y="240" />
            </Array>
          </mxGeometry>
        </mxCell>
        <mxCell id="CuUNJZhuXku8O-GPLWmY-1" value="Process examinee profile based on recent answer" style="rounded=0;whiteSpace=wrap;html=1;" vertex="1" parent="1">
          <mxGeometry x="380" y="160" width="120" height="60" as="geometry" />
        </mxCell>
        <mxCell id="CuUNJZhuXku8O-GPLWmY-4" style="edgeStyle=orthogonalEdgeStyle;rounded=0;orthogonalLoop=1;jettySize=auto;html=1;entryX=0.5;entryY=0;entryDx=0;entryDy=0;" edge="1" parent="1" source="CuUNJZhuXku8O-GPLWmY-2" target="CuUNJZhuXku8O-GPLWmY-5">
          <mxGeometry relative="1" as="geometry">
            <mxPoint x="320" y="310" as="targetPoint" />
          </mxGeometry>
        </mxCell>
        <mxCell id="CuUNJZhuXku8O-GPLWmY-6" value="POZITIVE" style="edgeLabel;html=1;align=center;verticalAlign=middle;resizable=0;points=[];" vertex="1" connectable="0" parent="CuUNJZhuXku8O-GPLWmY-4">
          <mxGeometry x="0.0476" y="-1" relative="1" as="geometry">
            <mxPoint x="10" y="-9" as="offset" />
          </mxGeometry>
        </mxCell>
        <mxCell id="CuUNJZhuXku8O-GPLWmY-13" value="" style="edgeStyle=orthogonalEdgeStyle;rounded=0;orthogonalLoop=1;jettySize=auto;html=1;" edge="1" parent="1" source="CuUNJZhuXku8O-GPLWmY-2" target="CuUNJZhuXku8O-GPLWmY-12">
          <mxGeometry relative="1" as="geometry">
            <Array as="points">
              <mxPoint x="560" y="310" />
            </Array>
          </mxGeometry>
        </mxCell>
        <mxCell id="CuUNJZhuXku8O-GPLWmY-14" value="NEGATIVE" style="edgeLabel;html=1;align=center;verticalAlign=middle;resizable=0;points=[];" vertex="1" connectable="0" parent="CuUNJZhuXku8O-GPLWmY-13">
          <mxGeometry x="0.0947" y="1" relative="1" as="geometry">
            <mxPoint y="-9" as="offset" />
          </mxGeometry>
        </mxCell>
        <mxCell id="CuUNJZhuXku8O-GPLWmY-2" value="Corectness&lt;br&gt;of the answer" style="rhombus;whiteSpace=wrap;html=1;" vertex="1" parent="1">
          <mxGeometry x="385" y="270" width="110" height="80" as="geometry" />
        </mxCell>
        <mxCell id="CuUNJZhuXku8O-GPLWmY-9" value="" style="edgeStyle=orthogonalEdgeStyle;rounded=0;orthogonalLoop=1;jettySize=auto;html=1;" edge="1" parent="1" source="CuUNJZhuXku8O-GPLWmY-5" target="CuUNJZhuXku8O-GPLWmY-8">
          <mxGeometry relative="1" as="geometry" />
        </mxCell>
        <mxCell id="CuUNJZhuXku8O-GPLWmY-5" value="Select a item with higher difficulty" style="rounded=0;whiteSpace=wrap;html=1;" vertex="1" parent="1">
          <mxGeometry x="260" y="340" width="120" height="60" as="geometry" />
        </mxCell>
        <mxCell id="CuUNJZhuXku8O-GPLWmY-11" value="" style="edgeStyle=orthogonalEdgeStyle;rounded=0;orthogonalLoop=1;jettySize=auto;html=1;" edge="1" parent="1" source="CuUNJZhuXku8O-GPLWmY-8" target="CuUNJZhuXku8O-GPLWmY-10">
          <mxGeometry relative="1" as="geometry">
            <Array as="points">
              <mxPoint x="330" y="530" />
              <mxPoint x="440" y="530" />
            </Array>
          </mxGeometry>
        </mxCell>
        <mxCell id="CuUNJZhuXku8O-GPLWmY-8" value="Look for items in the same question category" style="whiteSpace=wrap;html=1;rounded=0;" vertex="1" parent="1">
          <mxGeometry x="260" y="450" width="120" height="60" as="geometry" />
        </mxCell>
        <mxCell id="CuUNJZhuXku8O-GPLWmY-22" value="" style="edgeStyle=orthogonalEdgeStyle;rounded=0;orthogonalLoop=1;jettySize=auto;html=1;" edge="1" parent="1" source="CuUNJZhuXku8O-GPLWmY-10" target="CuUNJZhuXku8O-GPLWmY-21">
          <mxGeometry relative="1" as="geometry" />
        </mxCell>
        <mxCell id="CuUNJZhuXku8O-GPLWmY-10" value="Present the selected item ot the examinee" style="whiteSpace=wrap;html=1;rounded=0;" vertex="1" parent="1">
          <mxGeometry x="380" y="560" width="120" height="60" as="geometry" />
        </mxCell>
        <mxCell id="CuUNJZhuXku8O-GPLWmY-17" value="" style="edgeStyle=orthogonalEdgeStyle;rounded=0;orthogonalLoop=1;jettySize=auto;html=1;" edge="1" parent="1" source="CuUNJZhuXku8O-GPLWmY-12" target="CuUNJZhuXku8O-GPLWmY-16">
          <mxGeometry relative="1" as="geometry" />
        </mxCell>
        <mxCell id="CuUNJZhuXku8O-GPLWmY-12" value="Select an item with lower difficulty" style="whiteSpace=wrap;html=1;" vertex="1" parent="1">
          <mxGeometry x="500" y="340" width="120" height="60" as="geometry" />
        </mxCell>
        <mxCell id="CuUNJZhuXku8O-GPLWmY-18" style="edgeStyle=orthogonalEdgeStyle;rounded=0;orthogonalLoop=1;jettySize=auto;html=1;entryX=0.5;entryY=0;entryDx=0;entryDy=0;" edge="1" parent="1" source="CuUNJZhuXku8O-GPLWmY-16" target="CuUNJZhuXku8O-GPLWmY-10">
          <mxGeometry relative="1" as="geometry">
            <Array as="points">
              <mxPoint x="560" y="530" />
              <mxPoint x="440" y="530" />
            </Array>
          </mxGeometry>
        </mxCell>
        <mxCell id="CuUNJZhuXku8O-GPLWmY-16" value="Look for items with a different question category" style="whiteSpace=wrap;html=1;" vertex="1" parent="1">
          <mxGeometry x="500" y="450" width="120" height="60" as="geometry" />
        </mxCell>
        <mxCell id="CuUNJZhuXku8O-GPLWmY-23" style="edgeStyle=orthogonalEdgeStyle;rounded=0;orthogonalLoop=1;jettySize=auto;html=1;entryX=1;entryY=0.5;entryDx=0;entryDy=0;" edge="1" parent="1" source="CuUNJZhuXku8O-GPLWmY-21" target="CuUNJZhuXku8O-GPLWmY-1">
          <mxGeometry relative="1" as="geometry">
            <Array as="points">
              <mxPoint x="720" y="190" />
            </Array>
          </mxGeometry>
        </mxCell>
        <mxCell id="CuUNJZhuXku8O-GPLWmY-21" value="Await input form examinee" style="whiteSpace=wrap;html=1;rounded=0;" vertex="1" parent="1">
          <mxGeometry x="660" y="380" width="120" height="60" as="geometry" />
        </mxCell>
      </root>
    </mxGraphModel>
  </diagram>
</mxfile>
